<?xml version="1.0" standalone="no"?>
<!DOCTYPE svg PUBLIC "-//W3C//DTD SVG 20010904//EN"
 "http://www.w3.org/TR/2001/REC-SVG-20010904/DTD/svg10.dtd">
<svg version="1.0" xmlns="http://www.w3.org/2000/svg"
 width="300.000000pt" height="300.000000pt" viewBox="0 0 300.000000 300.000000"
 preserveAspectRatio="xMidYMid meet">
<metadata>
Created by potrace 1.11, written by Peter Selinger 2001-2013
</metadata>
<g transform="translate(0.000000,300.000000) scale(0.100000,-0.100000)"
fill="#000000" stroke="none">
<path d="M1145 2413 c-141 -135 -358 -345 -507 -490 -70 -67 -131 -123 -136
-123 -5 0 46 -223 115 -496 114 -459 123 -498 108 -514 -15 -17 -15 -18 7 -18
40 1 1002 -282 1030 -303 l28 -19 -6 27 c-5 25 7 40 124 153 663 642 601 578
591 613 -5 18 -11 43 -14 57 -3 14 -56 229 -118 478 -71 287 -110 458 -104
467 10 19 -7 20 -22 1 -9 -11 -86 8 -444 111 -237 68 -442 126 -454 129 -12 2
-34 9 -48 14 -15 6 -32 10 -38 10 -7 0 -57 -44 -112 -97z m595 -124 c173 -50
324 -94 335 -97 18 -5 -28 -18 -317 -86 l-97 -23 -122 126 c-66 69 -135 141
-152 158 l-31 33 35 -10 c19 -6 176 -51 349 -101z m-577 -125 c-31 -109 -61
-205 -68 -212 -6 -7 -20 -14 -31 -16 -36 -8 -79 -18 -219 -52 -77 -19 -148
-36 -158 -38 -9 -2 53 64 140 147 86 84 209 202 272 264 64 61 117 110 118
109 2 -1 -23 -92 -54 -202z m294 57 c74 -77 134 -143 134 -148 0 -11 -183 -55
-192 -46 -4 5 -10 20 -12 34 -3 14 -17 72 -31 130 -14 57 -28 114 -31 127 -2
12 -7 27 -10 32 -21 33 23 -7 142 -129z m-161 4 c2 -16 15 -70 29 -120 13 -49
22 -92 19 -96 -2 -4 -39 -15 -81 -25 -110 -25 -105 -25 -100 -6 2 9 26 93 52
186 l49 169 13 -39 c8 -21 16 -52 19 -69z m794 -126 c-25 -23 -86 -81 -137
-131 l-91 -89 -72 75 c-39 41 -71 78 -71 82 0 8 358 101 396 103 14 1 8 -9
-25 -40z m75 -11 c-2 -7 -27 -94 -55 -193 -28 -99 -53 -187 -56 -195 -3 -10
-28 10 -81 65 l-77 78 135 129 c74 70 135 128 136 128 1 0 0 -6 -2 -12z m134
-375 c47 -186 86 -347 89 -358 3 -11 -63 50 -145 135 l-150 154 24 86 c13 47
38 138 56 203 17 64 34 117 37 117 3 0 43 -152 89 -337z m-479 132 c0 -4 -122
-123 -238 -233 l-67 -62 -52 207 c-29 115 -52 209 -53 210 0 1 103 26 107 26
1 0 31 8 65 17 l63 18 88 -89 c48 -50 87 -92 87 -94z m-406 -99 c26 -103 45
-190 42 -193 -4 -4 -302 77 -373 102 -9 3 -8 16 2 52 7 26 23 82 35 123 l21
75 107 25 c71 17 109 22 113 15 4 -5 28 -95 53 -199z m-358 42 c-15 -51 -29
-98 -31 -104 -2 -8 -60 4 -177 38 -180 52 -219 67 -183 68 25 2 26 2 235 54
96 24 177 42 178 41 2 -2 -8 -45 -22 -97z m966 -205 c-40 -151 -53 -185 -70
-180 -122 34 -379 110 -384 113 -4 3 40 51 99 107 58 56 124 121 147 143 l41
42 90 -89 89 -88 -12 -48z m-1192 91 c91 -25 168 -48 171 -50 6 -3 -46 -197
-57 -216 -4 -6 -203 194 -294 296 -22 26 -23 28 -5 23 11 -3 94 -27 185 -53z
m50 -284 c46 -50 46 -50 11 -175 -66 -231 -85 -295 -90 -295 -5 0 -90 325
-116 440 -2 8 -11 44 -20 80 -9 36 -18 72 -20 80 -2 8 -7 33 -13 55 -25 100
-28 101 92 -23 63 -64 133 -137 156 -162z m420 149 c80 -23 147 -44 150 -46 2
-2 -65 -71 -150 -153 l-155 -149 -77 77 c-43 42 -78 84 -78 93 0 13 47 184 65
236 3 10 15 9 52 -2 26 -8 113 -33 193 -56z m922 -101 c75 -79 140 -147 144
-151 5 -4 2 -6 -6 -3 -19 7 -253 75 -303 89 -28 7 -37 14 -34 26 3 9 15 53 28
99 12 45 25 82 29 82 3 0 67 -64 142 -142z m-458 -34 l193 -56 -33 -116 c-19
-63 -35 -116 -36 -117 -4 -3 -208 -54 -231 -57 -16 -3 -25 23 -67 192 -55 219
-56 225 -35 216 9 -3 103 -31 209 -62z m-225 -159 c27 -110 48 -201 46 -203
-2 -2 -57 -17 -121 -34 l-118 -29 -85 87 -85 87 154 147 c85 82 156 148 157
147 1 -1 24 -92 52 -202z m604 49 c67 -20 141 -41 165 -47 23 -6 42 -13 42
-16 0 -7 -391 -103 -397 -97 -7 7 50 196 59 196 5 0 64 -16 131 -36z m-1112
-61 c31 -32 59 -63 62 -70 5 -8 -34 -52 -104 -120 -61 -59 -115 -109 -120
-111 -5 -2 -2 18 6 45 8 26 31 108 52 181 20 72 40 132 43 132 4 0 31 -26 61
-57z m1283 -99 c-21 -20 -139 -134 -262 -253 -123 -119 -227 -217 -231 -219
-8 -3 104 397 114 407 3 2 13 6 23 8 9 2 94 23 187 47 215 56 218 56 169 10z
m-1035 -168 c-2 -2 -94 -26 -204 -54 l-200 -50 132 128 132 128 72 -74 c40
-41 70 -76 68 -78z m588 67 c-78 -282 -113 -403 -117 -403 -5 0 -89 330 -94
364 0 5 40 20 89 32 113 28 129 29 122 7z m-230 -179 c36 -141 39 -153 48
-204 l7 -35 -32 35 c-18 19 -86 91 -153 159 -80 83 -116 126 -106 130 42 14
185 49 194 47 5 -1 24 -61 42 -132z m-205 -41 c57 -59 119 -122 138 -142 19
-20 41 -43 48 -52 9 -12 -79 10 -295 72 -170 49 -332 96 -362 104 -30 8 -56
16 -58 19 -4 3 377 100 409 103 11 1 59 -41 120 -104z"/>
</g>
</svg>
